<svg width="178" height="60" viewBox="0 0 178 60" fill="none" xmlns="http://www.w3.org/2000/svg">
<g filter="url(#filter0_d_20_44)">
<path d="M149.551 50.472C149.551 50.808 148.799 50.976 147.295 50.976C145.791 50.976 144.975 50.856 144.847 50.616L140.839 43.128V50.592C140.839 50.88 140.095 51.024 138.607 51.024C137.135 51.024 136.399 50.88 136.399 50.592V34.536C136.399 34.296 137.031 34.176 138.295 34.176C138.791 34.176 139.367 34.224 140.023 34.32C140.695 34.4 141.103 34.56 141.247 34.8L145.087 42.192V34.656C145.087 34.352 145.831 34.2 147.319 34.2C148.807 34.2 149.551 34.352 149.551 34.656V50.472Z" fill="white"/>
<path d="M126.816 51.24C124.576 51.24 122.744 50.504 121.32 49.032C119.912 47.56 119.208 45.416 119.208 42.6C119.208 39.768 119.92 37.624 121.344 36.168C122.784 34.712 124.632 33.984 126.888 33.984C129.16 33.984 130.992 34.704 132.384 36.144C133.776 37.568 134.472 39.736 134.472 42.648C134.472 45.544 133.76 47.704 132.336 49.128C130.912 50.536 129.072 51.24 126.816 51.24ZM126.84 38.592C126.072 38.592 125.424 38.944 124.896 39.648C124.384 40.352 124.128 41.344 124.128 42.624C124.128 43.888 124.376 44.864 124.872 45.552C125.368 46.224 126.016 46.56 126.816 46.56C127.632 46.56 128.288 46.216 128.784 45.528C129.296 44.84 129.552 43.856 129.552 42.576C129.552 41.296 129.288 40.312 128.76 39.624C128.248 38.936 127.608 38.592 126.84 38.592Z" fill="white"/>
<path d="M110.983 46.872V38.328H109.279C109.007 38.328 108.815 37.984 108.703 37.296C108.655 36.96 108.631 36.616 108.631 36.264C108.631 35.912 108.655 35.568 108.703 35.232C108.815 34.544 109.007 34.2 109.279 34.2H117.343C117.615 34.2 117.799 34.544 117.895 35.232C117.959 35.568 117.991 35.912 117.991 36.264C117.991 36.616 117.959 36.96 117.895 37.296C117.799 37.984 117.615 38.328 117.343 38.328H115.735V46.872H117.415C117.687 46.872 117.879 47.216 117.991 47.904C118.055 48.24 118.087 48.584 118.087 48.936C118.087 49.288 118.055 49.632 117.991 49.968C117.879 50.656 117.687 51 117.415 51H109.327C109.055 51 108.871 50.656 108.775 49.968C108.711 49.632 108.679 49.288 108.679 48.936C108.679 48.584 108.711 48.24 108.775 47.904C108.871 47.216 109.055 46.872 109.327 46.872H110.983Z" fill="white"/>
<path d="M104.576 50.616C104.576 50.936 103.784 51.096 102.2 51.096C100.616 51.096 99.8243 50.936 99.8243 50.616V38.568H96.9443C96.6723 38.568 96.4803 38.2 96.3683 37.464C96.3203 37.112 96.2963 36.752 96.2963 36.384C96.2963 36.016 96.3203 35.656 96.3683 35.304C96.4803 34.568 96.6723 34.2 96.9443 34.2H107.384C107.656 34.2 107.848 34.568 107.96 35.304C108.008 35.656 108.032 36.016 108.032 36.384C108.032 36.752 108.008 37.112 107.96 37.464C107.848 38.2 107.656 38.568 107.384 38.568H104.576V50.616Z" fill="white"/>
<path d="M90.13 34.68C90.13 34.36 90.994 34.2 92.722 34.2C94.466 34.2 95.338 34.36 95.338 34.68V45.696C95.338 47.328 94.754 48.664 93.586 49.704C92.418 50.728 90.802 51.24 88.738 51.24C86.69 51.24 85.018 50.712 83.722 49.656C82.442 48.584 81.802 47.144 81.802 45.336V34.704C81.802 34.384 82.666 34.224 84.394 34.224C86.138 34.224 87.01 34.384 87.01 34.704V45.528C87.01 45.848 87.178 46.104 87.514 46.296C87.866 46.488 88.234 46.584 88.618 46.584C89.002 46.584 89.346 46.496 89.65 46.32C89.97 46.144 90.13 45.88 90.13 45.528V34.68Z" fill="white"/>
<path d="M71.6123 49.584V34.656C71.6123 34.32 72.4203 34.152 74.0363 34.152C75.6683 34.152 76.4843 34.32 76.4843 34.656V46.416H80.1803C80.4683 46.416 80.6683 46.792 80.7803 47.544C80.8283 47.912 80.8523 48.288 80.8523 48.672C80.8523 49.056 80.8283 49.448 80.7803 49.848C80.6523 50.616 80.4443 51 80.1563 51H72.7643C72.4123 51 72.1323 50.856 71.9243 50.568C71.7163 50.28 71.6123 49.952 71.6123 49.584Z" fill="white"/>
<path d="M62.2694 51.24C60.0294 51.24 58.1974 50.504 56.7734 49.032C55.3654 47.56 54.6614 45.416 54.6614 42.6C54.6614 39.768 55.3734 37.624 56.7974 36.168C58.2374 34.712 60.0854 33.984 62.3414 33.984C64.6134 33.984 66.4454 34.704 67.8374 36.144C69.2294 37.568 69.9254 39.736 69.9254 42.648C69.9254 45.544 69.2134 47.704 67.7894 49.128C66.3654 50.536 64.5254 51.24 62.2694 51.24ZM62.2934 38.592C61.5254 38.592 60.8774 38.944 60.3494 39.648C59.8374 40.352 59.5814 41.344 59.5814 42.624C59.5814 43.888 59.8294 44.864 60.3254 45.552C60.8214 46.224 61.4694 46.56 62.2694 46.56C63.0854 46.56 63.7414 46.216 64.2374 45.528C64.7494 44.84 65.0054 43.856 65.0054 42.576C65.0054 41.296 64.7414 40.312 64.2134 39.624C63.7014 38.936 63.0614 38.592 62.2934 38.592Z" fill="white"/>
<path d="M38.3382 34.512C38.3382 34.432 38.6822 34.36 39.3702 34.296C40.0742 34.216 40.6502 34.176 41.0982 34.176C42.8742 34.176 43.8022 34.408 43.8822 34.872L45.9462 45.432L47.8902 34.872C47.9862 34.408 48.9782 34.176 50.8662 34.176C51.3302 34.176 51.9142 34.208 52.6182 34.272C53.3222 34.336 53.6742 34.408 53.6742 34.488L49.4262 50.376C49.3622 50.632 48.8902 50.8 48.0102 50.88C46.6502 51.024 45.4102 51.056 44.2902 50.976C43.1862 50.88 42.6022 50.72 42.5382 50.496L38.3382 34.512Z" fill="white"/>
<path d="M35.2383 40.872C35.5423 40.872 35.6943 41.432 35.6943 42.552C35.6943 42.888 35.6543 43.288 35.5743 43.752C35.5103 44.2 35.3823 44.424 35.1903 44.424H32.1423V46.824H36.5583C36.8303 46.824 37.0143 47.176 37.1103 47.88C37.1583 48.184 37.1823 48.512 37.1823 48.864C37.1823 49.2 37.1343 49.64 37.0383 50.184C36.9423 50.728 36.7823 51 36.5583 51H28.3503C27.7423 51 27.4383 50.752 27.4383 50.256V34.824C27.4383 34.408 27.6223 34.2 27.9903 34.2H36.5823C36.9183 34.2 37.0863 34.912 37.0863 36.336C37.0863 37.744 36.9183 38.448 36.5823 38.448H32.1423V40.872H35.2383Z" fill="white"/>
<path d="M173.012 0.992188L171.605 27.4766L161.371 28.4141L155.902 14.2344L155.043 28.6875H146.254L146.957 0.992188L156.723 0.523438L163.48 14.5859L163.793 1.30469L173.012 0.992188Z" fill="white"/>
<path d="M145.082 15.2109C145.082 16.3958 144.945 17.5417 144.672 18.6484C144.398 19.7422 144.001 20.7708 143.48 21.7344C142.973 22.6979 142.348 23.5833 141.605 24.3906C140.876 25.1849 140.049 25.8685 139.125 26.4414C138.214 27.0143 137.217 27.4635 136.137 27.7891C135.056 28.1016 133.91 28.2578 132.699 28.2578C131.527 28.2578 130.408 28.1081 129.34 27.8086C128.285 27.5091 127.296 27.0924 126.371 26.5586C125.447 26.0117 124.607 25.3607 123.852 24.6055C123.109 23.8372 122.471 22.9909 121.938 22.0664C121.417 21.1289 121.007 20.1263 120.707 19.0586C120.421 17.9909 120.277 16.8776 120.277 15.7188C120.277 14.5859 120.414 13.4792 120.688 12.3984C120.961 11.3047 121.352 10.276 121.859 9.3125C122.38 8.34896 123.005 7.46354 123.734 6.65625C124.464 5.84896 125.277 5.15234 126.176 4.56641C127.087 3.98047 128.07 3.52474 129.125 3.19922C130.18 2.8737 131.293 2.71094 132.465 2.71094C134.353 2.71094 136.072 3.00391 137.621 3.58984C139.184 4.17578 140.512 5.01562 141.605 6.10938C142.712 7.1901 143.565 8.50521 144.164 10.0547C144.776 11.5911 145.082 13.3099 145.082 15.2109ZM136.41 15.7188C136.41 15.1589 136.326 14.6185 136.156 14.0977C136 13.5638 135.766 13.0951 135.453 12.6914C135.141 12.2747 134.75 11.9427 134.281 11.6953C133.826 11.4349 133.298 11.3047 132.699 11.3047C132.087 11.3047 131.54 11.4154 131.059 11.6367C130.577 11.8581 130.16 12.1641 129.809 12.5547C129.47 12.9323 129.21 13.3815 129.027 13.9023C128.845 14.4102 128.754 14.9505 128.754 15.5234C128.754 16.0703 128.832 16.6172 128.988 17.1641C129.145 17.7109 129.379 18.2057 129.691 18.6484C130.004 19.0911 130.388 19.4492 130.844 19.7227C131.312 19.9961 131.853 20.1328 132.465 20.1328C133.077 20.1328 133.624 20.0156 134.105 19.7812C134.6 19.5339 135.017 19.2083 135.355 18.8047C135.694 18.388 135.954 17.9128 136.137 17.3789C136.319 16.8451 136.41 16.2917 136.41 15.7188Z" fill="white"/>
<path d="M119.887 1.5L117.738 28.1016L109.496 28.5312V2.04688L119.887 1.5Z" fill="white"/>
<path d="M108.266 10.2109C108.266 11.474 108.077 12.5938 107.699 13.5703C107.322 14.5469 106.801 15.3997 106.137 16.1289C105.486 16.8581 104.717 17.4766 103.832 17.9844C102.947 18.4922 101.996 18.9089 100.98 19.2344C99.9779 19.5469 98.9362 19.7812 97.8555 19.9375C96.7747 20.0807 95.7135 20.1589 94.6719 20.1719V29.2734H85.5703C85.5703 26.2917 85.5768 23.3229 85.5898 20.3672C85.6029 17.4115 85.6224 14.4297 85.6484 11.4219C85.6745 9.83333 85.681 8.24479 85.668 6.65625C85.6549 5.06771 85.6875 3.46615 85.7656 1.85156C87.4323 1.35677 89.099 0.985677 90.7656 0.738281C92.4323 0.490885 94.151 0.367188 95.9219 0.367188C96.9245 0.367188 97.9271 0.451823 98.9297 0.621094C99.9323 0.777344 100.889 1.03125 101.801 1.38281C102.725 1.73438 103.578 2.17708 104.359 2.71094C105.154 3.23177 105.837 3.85677 106.41 4.58594C106.983 5.3151 107.432 6.14844 107.758 7.08594C108.096 8.01042 108.266 9.05208 108.266 10.2109ZM99.5938 10.875C99.5938 10.0286 99.3333 9.37109 98.8125 8.90234C98.3047 8.42057 97.6406 8.17969 96.8203 8.17969C96.5469 8.17969 96.2604 8.20573 95.9609 8.25781C95.6745 8.29688 95.401 8.34896 95.1406 8.41406L94.9062 14.1172C95.0885 14.1432 95.2643 14.1562 95.4336 14.1562C95.6029 14.1562 95.7786 14.1562 95.9609 14.1562C96.4297 14.1562 96.8789 14.0781 97.3086 13.9219C97.7513 13.7656 98.1419 13.5443 98.4805 13.2578C98.819 12.9583 99.0859 12.6133 99.2812 12.2227C99.4896 11.819 99.5938 11.3698 99.5938 10.875Z" fill="white"/>
<path d="M84.1445 10.1719C84.1445 11.1875 84.0534 12.112 83.8711 12.9453C83.7018 13.7656 83.4284 14.5208 83.0508 15.2109C82.6732 15.901 82.1849 16.5391 81.5859 17.125C80.987 17.7109 80.2643 18.2708 79.418 18.8047L84.0664 27.0859L75.2773 28.8047L72.2695 20.4844L69.8477 20.5625L69.4961 28.6875H61.0977C61.1628 25.7188 61.2214 22.763 61.2734 19.8203C61.3385 16.8776 61.4102 13.9219 61.4883 10.9531C61.5143 9.45573 61.5404 7.97135 61.5664 6.5C61.5924 5.02865 61.6445 3.54427 61.7227 2.04688C62.6341 1.70833 63.5326 1.42839 64.418 1.20703C65.3034 0.985677 66.1888 0.816406 67.0742 0.699219C67.9727 0.56901 68.8776 0.484375 69.7891 0.445312C70.7135 0.393229 71.6576 0.367188 72.6211 0.367188C74.1055 0.367188 75.5378 0.575521 76.918 0.992188C78.3112 1.39583 79.5417 2.00781 80.6094 2.82812C81.6771 3.64844 82.5299 4.67057 83.168 5.89453C83.819 7.11849 84.1445 8.54427 84.1445 10.1719ZM75.3945 10.7969C75.3945 10.25 75.3164 9.7487 75.1602 9.29297C75.0169 8.83724 74.7956 8.44661 74.4961 8.12109C74.2096 7.78255 73.8451 7.52214 73.4023 7.33984C72.9727 7.14453 72.4648 7.04688 71.8789 7.04688C71.6185 7.04688 71.3646 7.06641 71.1172 7.10547C70.8698 7.13151 70.6289 7.17708 70.3945 7.24219L70.082 14.5078H70.5508C71.1107 14.5078 71.6771 14.4362 72.25 14.293C72.8359 14.1497 73.3568 13.9284 73.8125 13.6289C74.2812 13.3294 74.6589 12.9453 74.9453 12.4766C75.2448 12.0078 75.3945 11.4479 75.3945 10.7969Z" fill="white"/>
<path d="M59.8867 15.2109C59.8867 16.3958 59.75 17.5417 59.4766 18.6484C59.2031 19.7422 58.806 20.7708 58.2852 21.7344C57.7773 22.6979 57.1523 23.5833 56.4102 24.3906C55.681 25.1849 54.8542 25.8685 53.9297 26.4414C53.0182 27.0143 52.0221 27.4635 50.9414 27.7891C49.8607 28.1016 48.7148 28.2578 47.5039 28.2578C46.332 28.2578 45.2122 28.1081 44.1445 27.8086C43.0898 27.5091 42.1003 27.0924 41.1758 26.5586C40.2513 26.0117 39.4115 25.3607 38.6562 24.6055C37.9141 23.8372 37.276 22.9909 36.7422 22.0664C36.2214 21.1289 35.8112 20.1263 35.5117 19.0586C35.2253 17.9909 35.082 16.8776 35.082 15.7188C35.082 14.5859 35.2188 13.4792 35.4922 12.3984C35.7656 11.3047 36.1562 10.276 36.6641 9.3125C37.1849 8.34896 37.8099 7.46354 38.5391 6.65625C39.2682 5.84896 40.082 5.15234 40.9805 4.56641C41.8919 3.98047 42.875 3.52474 43.9297 3.19922C44.9844 2.8737 46.0977 2.71094 47.2695 2.71094C49.1576 2.71094 50.8763 3.00391 52.4258 3.58984C53.9883 4.17578 55.3164 5.01562 56.4102 6.10938C57.5169 7.1901 58.3698 8.50521 58.9688 10.0547C59.5807 11.5911 59.8867 13.3099 59.8867 15.2109ZM51.2148 15.7188C51.2148 15.1589 51.1302 14.6185 50.9609 14.0977C50.8047 13.5638 50.5703 13.0951 50.2578 12.6914C49.9453 12.2747 49.5547 11.9427 49.0859 11.6953C48.6302 11.4349 48.1029 11.3047 47.5039 11.3047C46.8919 11.3047 46.3451 11.4154 45.8633 11.6367C45.3815 11.8581 44.9648 12.1641 44.6133 12.5547C44.2747 12.9323 44.0143 13.3815 43.832 13.9023C43.6497 14.4102 43.5586 14.9505 43.5586 15.5234C43.5586 16.0703 43.6367 16.6172 43.793 17.1641C43.9492 17.7109 44.1836 18.2057 44.4961 18.6484C44.8086 19.0911 45.1927 19.4492 45.6484 19.7227C46.1172 19.9961 46.6576 20.1328 47.2695 20.1328C47.8815 20.1328 48.4284 20.0156 48.9102 19.7812C49.4049 19.5339 49.8216 19.2083 50.1602 18.8047C50.4987 18.388 50.7591 17.9128 50.9414 17.3789C51.1237 16.8451 51.2148 16.2917 51.2148 15.7188Z" fill="white"/>
<path d="M34.5742 0.523438L32.7773 29.1953L23.8711 29.5859L23.9492 14.4688L19.9258 26.6562H16.4883L13.4023 15.7578L13.3633 28.4141L4.33984 28.6875L4.73047 1.69531L14.7695 1.30469L18.7539 14.2344L24.0664 0.523438H34.5742Z" fill="white"/>
</g>
<defs>
<filter id="filter0_d_20_44" x="0.339844" y="0.367188" width="176.672" height="58.8728" filterUnits="userSpaceOnUse" color-interpolation-filters="sRGB">
<feFlood flood-opacity="0" result="BackgroundImageFix"/>
<feColorMatrix in="SourceAlpha" type="matrix" values="0 0 0 0 0 0 0 0 0 0 0 0 0 0 0 0 0 0 127 0" result="hardAlpha"/>
<feOffset dy="4"/>
<feGaussianBlur stdDeviation="2"/>
<feComposite in2="hardAlpha" operator="out"/>
<feColorMatrix type="matrix" values="0 0 0 0 0 0 0 0 0 0 0 0 0 0 0 0 0 0 0.25 0"/>
<feBlend mode="normal" in2="BackgroundImageFix" result="effect1_dropShadow_20_44"/>
<feBlend mode="normal" in="SourceGraphic" in2="effect1_dropShadow_20_44" result="shape"/>
</filter>
</defs>
</svg>
